:SAMPLES-PER-SECOND 30
:FULLY-SPECIFIED
:DEGREES
31
root  11.9398 40.1766 -4.7672 -33.5165 -83.3341 28.4075
RightUpLeg  -2.0442 -13.6312 -17.4217
RightLeg  7.9374 -0.15149 1.00789
RightFoot  1.72931 -1.14675 10.0903
RightToes  0.00048216 0.542163 -0.142577
Spine  10.1642 -0.682104 -3.64243
Spine1  8.01082 -1.12045 0.408084
HEad  -11.8809 5.8666 -6.03605
LeftShoulder1  10.1576 -14.5931 -49.0071
LeftArm  4.77606 9.04942 -23.1021
LeftForeArm  41.4538 -35.746 -5.63106
LeftHand  -0.25398 0.0180481 5.50724
RightShoulder  5.72204 9.35581 38.4348
RightArm  -10.9535 -12.0792 34.0531
RightForeArm  22.672 27.9022 4.7905
RightHand  -2.19453 8.82783 -18.2206
LeftUpLeg  -3.25867 7.13885 -0.13345
LeftLeg  13.0243 0.907956 -1.45799
LeftFoot  -4.68571 0.0594218 -0.569795
LeftToes  1.06241e-005 4.65855e-005 -8.18508e-006
32
root  12.0797 40.0624 -4.76554 -30.4807 -83.4424 25.5072
RightUpLeg  -3.3309 -15.103 -17.2141
RightLeg  10.2534 -0.899958 0.918468
RightFoot  0.467214 -1.03017 9.96018
RightToes  0.00048216 0.542163 -0.142577
Spine  11.0486 -0.316227 -3.73648
Spine1  7.20344 -0.941208 1.12101
HEad  -12.1543 7.49215 -6.08889
LeftShoulder1  10.2469 -14.7086 -49.1238
LeftArm  4.74633 8.60961 -22.9933
LeftForeArm  41.9109 -37.244 -5.99536
LeftHand  -0.25398 0.0180481 5.50724
RightShoulder  5.77268 9.44061 38.53
RightArm  -10.7451 -12.0176 33.2072
RightForeArm  21.9314 29.353 5.16633
RightHand  -2.12863 8.55136 -18.0282
LeftUpLeg  -4.75232 8.73301 -0.0512124
LeftLeg  15.1672 -0.641126 -1.07346
LeftFoot  -5.41516 0.073537 -0.789558
LeftToes  1.06241e-005 4.65855e-005 -8.18508e-006
33
root  12.2027 39.8851 -4.73803 -22.089 -83.2617 16.9011
RightUpLeg  -4.33074 -17.8803 -16.7035
RightLeg  13.9153 -1.15264 0.395975
RightFoot  -0.824365 -0.877188 9.44622
RightToes  0.00048216 0.542163 -0.142577
Spine  11.9333 0.0627263 -3.01241
Spine1  6.46083 -0.851284 2.57853
HEad  -12.3473 10.494 -6.68845
LeftShoulder1  10.5432 -14.9146 -49.9768
LeftArm  4.69578 7.45116 -23.1929
LeftForeArm  42.0636 -37.4514 -6.04303
LeftHand  -0.25398 0.0180481 5.50724
RightShoulder  5.93562 9.59019 39.2315
RightArm  -11.2804 -12.9989 30.3342
RightForeArm  20.68 32.9989 6.13225
RightHand  -2.08499 8.32586 -17.9492
LeftUpLeg  -6.53035 8.99465 0.219469
LeftLeg  18.4098 -1.25577 -0.254463
LeftFoot  -6.62017 0.0656237 -0.613418
LeftToes  1.06241e-005 4.65855e-005 -8.18508e-006
34
root  12.2072 39.6465 -4.64118 -14.8607 -82.9433 8.38096
RightUpLeg  -3.7115 -19.1507 -16.8452
RightLeg  18.0434 -0.045522 -0.146435
RightFoot  -2.05348 -0.814062 9.84154
RightToes  0.00048216 0.542163 -0.142577
Spine  12.1938 0.530223 -1.85115
Spine1  6.73991 -0.817061 4.77719
HEad  -12.0449 14.1457 -6.57069
LeftShoulder1  10.9454 -15.1542 -51.2041
LeftArm  5.95495 5.6603 -24.2181
LeftForeArm  41.413 -36.495 -5.83003
LeftHand  -0.25398 0.0180481 5.50724
RightShoulder  6.09437 9.72049 39.9519
RightArm  -12.3282 -14.4309 26.3494
RightForeArm  18.4266 37.3397 7.42302
RightHand  -2.08484 8.09131 -18.2444
LeftUpLeg  -7.02932 7.28338 0.786286
LeftLeg  21.9811 0.109916 0.402869
LeftFoot  -8.37088 0.0521919 -0.051487
LeftToes  1.06241e-005 4.65855e-005 -8.18508e-006
35
root  11.9908 39.3597 -4.43146 -16.2456 -83.6064 7.37021
RightUpLeg  -1.28093 -16.0063 -18.4955
RightLeg  21.0772 1.84101 0.560122
RightFoot  -3.67921 -0.818118 11.8433
RightToes  0.00048216 0.542163 -0.142577
Spine  10.9913 0.978616 -0.760872
Spine1  7.94689 -0.864899 6.85117
HEad  -9.65966 17.4524 -4.0099
LeftShoulder1  11.2733 -15.3476 -52.1767
LeftArm  8.64706 4.59024 -25.9539
LeftForeArm  39.5124 -34.6637 -5.46835
LeftHand  -0.25398 0.0180481 5.50724
RightShoulder  5.97228 9.49971 39.7983
RightArm  -12.9604 -14.7611 23.0344
RightForeArm  16.0247 38.9436 8.04804
RightHand  -2.02243 7.57334 -18.3861
LeftUpLeg  -5.49808 7.46536 1.04085
LeftLeg  25.2711 0.776863 0.737789
LeftFoot  -10.7651 0.0623997 0.326107
LeftToes  1.06241e-005 4.65855e-005 -8.18508e-006
36
root  11.5491 39.0721 -4.05602 -42.6189 -85.9485 31.0599
RightUpLeg  1.30147 -11.4618 -20.6281
RightLeg  22.205 5.26577 2.13839
RightFoot  -5.70124 -0.731353 13.9667
RightToes  0.00048216 0.542163 -0.142577
Spine  8.37636 1.05018 1.05781
Spine1  8.704 -1.07503 7.78508
HEad  -4.75663 19.553 0.576421
LeftShoulder1  11.4185 -15.4483 -52.5567
LeftArm  10.8054 6.05218 -27.9257
LeftForeArm  37.5838 -33.244 -5.22165
LeftHand  -0.25398 0.0180481 5.50724
RightShoulder  5.52513 8.82889 38.7194
RightArm  -12.9389 -12.9115 21.1359
RightForeArm  14.5202 36.8029 7.5235
RightHand  -1.8743 6.87243 -18.0193
LeftUpLeg  -2.5048 9.95641 0.925757
LeftLeg  27.8307 1.26635 1.07773
LeftFoot  -13.4771 0.0842256 0.20971
LeftToes  1.06241e-005 4.65855e-005 -8.18508e-006
37
root  10.9887 38.8349 -3.53804 -117.522 -86.6898 103.7
RightUpLeg  2.35796 -7.03368 -22.3878
RightLeg  22.4078 7.85269 3.33578
RightFoot  -7.30918 -0.563299 14.4599
RightToes  0.00048216 0.542163 -0.142577
Spine  5.69571 0.550488 4.04889
Spine1  8.03687 -1.69246 8.10157
HEad  0.395691 20.2954 4.66063
LeftShoulder1  11.4226 -15.4677 -52.5223
LeftArm  10.3186 10.3209 -29.8259
LeftForeArm  37.3152 -33.8505 -5.3879
LeftHand  -0.25398 0.0180481 5.50724
RightShoulder  5.03391 8.06688 37.4828
RightArm  -12.7047 -8.53448 20.3025
RightForeArm  13.2435 33.5427 6.6954
RightHand  -1.86877 6.76183 -18.1168
LeftUpLeg  1.04208 13.586 0.453546
LeftLeg  29.2245 2.78629 2.04009
LeftFoot  -15.8726 0.0893101 -0.152063
LeftToes  1.06241e-005 4.65855e-005 -8.18508e-006
38
root  10.4369 38.6256 -3.02329 -163.714 -80.6311 147.95
RightUpLeg  1.29071 -1.77766 -23.8309
RightLeg  23.5631 8.26232 3.7125
RightFoot  -8.34481 -0.41099 13.4545
RightToes  0.00048216 0.542163 -0.142577
Spine  4.38705 -0.397707 6.38475
Spine1  6.81001 -3.10154 9.59284
HEad  3.11103 20.3827 6.95607
LeftShoulder1  11.3995 -15.4357 -52.5053
LeftArm  7.60569 15.4788 -31.3556
LeftForeArm  38.036 -36.6666 -6.06782
LeftHand  -0.25398 0.0180481 5.50724
RightShoulder  4.81994 7.69725 37.0226
RightArm  -11.3432 -1.1992 19.9903
RightForeArm  10.7406 31.7156 6.37051
RightHand  -2.18997 7.79602 -19.5099
LeftUpLeg  4.81023 18.0804 -0.599708
LeftLeg  29.3461 5.23881 3.53117
LeftFoot  -17.6822 0.070025 -0.649556
LeftToes  1.06241e-005 4.65855e-005 -8.18508e-006
39
root  9.9574 38.3571 -2.64616 -168.443 -72.413 150.482
RightUpLeg  -1.42383 5.94566 -25.4581
RightLeg  26.4168 7.52011 3.8297
RightFoot  -9.55597 -0.262942 12.6966
RightToes  0.00048216 0.542163 -0.142577
Spine  4.97699 -1.68373 6.5158
Spine1  6.35436 -5.31091 12.6496
HEad  3.38023 19.9861 8.33104
LeftShoulder1  11.3759 -15.3492 -52.6331
LeftArm  4.87704 19.3556 -31.9208
LeftForeArm  37.8642 -40.0284 -7.00016
LeftHand  -0.25398 0.0180481 5.50724
RightShoulder  4.97922 7.91588 37.568
RightArm  -7.02544 8.87187 20.7236
RightForeArm  8.45652 30.9194 6.3018
RightHand  -2.58665 9.15513 -20.8855
LeftUpLeg  8.84 23.8057 -1.90655
LeftLeg  28.8332 7.7083 4.92932
LeftFoot  -19.182 0.0130651 -1.48134
LeftToes  1.06241e-005 4.65855e-005 -8.18508e-006
40
root  9.55639 37.9896 -2.3998 -171.627 -63.9335 151.196
RightUpLeg  -4.90489 14.8461 -27.39
RightLeg  29.9867 7.49193 4.43443
RightFoot  -11.2581 -0.085238 13.1227
RightToes  0.00048216 0.542163 -0.142577
Spine  7.24781 -3.18428 5.7683
Spine1  6.39467 -7.73166 15.7203
HEad  3.31396 18.8949 9.12782
LeftShoulder1  11.3264 -15.2582 -52.6572
LeftArm  3.50723 21.4988 -31.0605
LeftForeArm  36.9399 -42.1701 -7.6978
LeftHand  -0.25398 0.0180481 5.50724
RightShoulder  5.28956 8.41846 38.3112
RightArm  0.170734 19.028 23.7001
RightForeArm  9.11544 30.6253 6.19006
RightHand  -2.58579 9.35717 -20.5845
LeftUpLeg  12.5186 29.9421 -2.81437
LeftLeg  28.8606 9.89567 6.22006
LeftFoot  -20.6848 -0.0841523 -2.54658
LeftToes  1.06241e-005 4.65855e-005 -8.18508e-006
41
root  9.23738 37.6007 -2.19759 -174.438 -56.5711 152.062
RightUpLeg  -8.63028 22.0268 -29.156
RightLeg  33.0078 8.38113 5.59372
RightFoot  -12.9302 0.103871 13.8271
RightToes  0.00048216 0.542163 -0.142577
Spine  10.2938 -4.69415 5.97001
Spine1  6.14854 -9.73552 18.0268
HEad  4.06213 17.6805 8.78392
LeftShoulder1  11.2474 -15.2254 -52.3896
LeftArm  3.09586 22.4959 -29.2843
LeftForeArm  36.9836 -42.732 -7.87506
LeftHand  -0.25398 0.0180481 5.50724
RightShoulder  5.46972 8.7549 38.5529
RightArm  8.1182 26.1103 28.1208
RightForeArm  11.9604 32.0899 6.40006
RightHand  -2.32266 8.83513 -19.2318
LeftUpLeg  14.5422 34.7677 -3.50004
LeftLeg  30.016 12.2555 7.92002
LeftFoot  -22.0807 -0.184594 -3.37733
LeftToes  1.06241e-005 4.65855e-005 -8.18508e-006
42
root  9.01805 37.2793 -2.00779 -176.499 -50.7885 153.132
RightUpLeg  -12.3396 26.5081 -30.5693
RightLeg  35.1912 9.41846 6.83604
RightFoot  -14.0966 0.241737 13.9999
RightToes  0.00048216 0.542163 -0.142577
Spine  13.1751 -5.93807 6.79561
Spine1  5.91244 -11.1929 20.05
HEad  5.0153 17.1195 7.55123
LeftShoulder1  11.0705 -15.158 -51.767
LeftArm  2.00818 22.8208 -27.8123
LeftForeArm  38.6543 -42.4763 -7.68959
LeftHand  -0.25398 0.0180481 5.50724
RightShoulder  5.53907 8.89813 38.594
RightArm  14.3422 29.7556 31.4114
RightForeArm  14.3504 35.6161 7.19842
RightHand  -2.24358 8.97567 -18.4315
LeftUpLeg  14.6701 38.0157 -4.40674
LeftLeg  31.7439 14.6314 9.93084
LeftFoot  -23.1615 -0.257428 -3.83016
LeftToes  1.06241e-005 4.65855e-005 -8.18508e-006
